<svg height="463pt" viewBox="-31 0 463 463.99829" width="463pt" xmlns="http://www.w3.org/2000/svg"><path d="m328.5 280h-92v-23.785156c26.316406-11.859375 45.167969-35.84375 50.472656-64.214844h1.527344c15.464844 0 28-12.539062 28-28 0-15.464844-12.535156-28-28-28v-70.65625c-.070312-21.90625-17.691406-39.707031-39.59375-40l-129.0625-1.34375-21.6875-21.65625c-2.289062-2.2890625-5.730469-2.972656-8.71875-1.734375s-4.9375 4.152344-4.9375 7.390625v62.167969c.039062 16.402343 11.839844 30.414062 28 33.238281v32.59375c-15.464844 0-28 12.535156-28 28 0 15.460938 12.535156 28 28 28h1.527344c5.867187 31.375 28.230468 57.136719 58.472656 67.351562v20.648438h-100c-39.746094.042969-71.957031 32.253906-72 72v104c0 4.417969 3.582031 8 8 8h384c4.417969 0 8-3.582031 8-8v-104c-.046875-39.746094-32.253906-71.957031-72-72zm-40-128c6.625 0 12 5.371094 12 12 0 6.625-5.375 12-12 12zm-176 24c-6.628906 0-12-5.375-12-12 0-6.628906 5.371094-12 12-12zm160-40.800781c-8.296875-8.515625-13.695312-19.4375-15.417969-31.199219h15.417969zm-116 .800781c8.835938 0 16 7.160156 16 16 0 8.835938-7.164062 16-16 16s-16-7.164062-16-16c0-8.839844 7.164062-16 16-16zm-28-.800781v-31.199219h15.414062c-1.722656 11.761719-7.117187 22.683594-15.414062 31.199219zm28-15.199219h-.191406c1.84375-5.175781 3.089844-10.542969 3.71875-16h80.945312c.625 5.457031 1.875 10.824219 3.71875 16h-.191406c-14.546875.054688-27.226562 9.914062-30.863281 24h-25.136719c-.363281.046875-.722656.117188-1.074219.214844-3.558593-14.195313-16.292969-24.164063-30.925781-24.214844zm88 16c8.835938 0 16 7.160156 16 16 0 8.835938-7.164062 16-16 16s-16-7.164062-16-16c0-8.839844 7.164062-16 16-16zm-126.167969-48c-9.84375-.015625-17.820312-7.992188-17.832031-17.832031v-42.859375l10.34375 10.34375c1.484375 1.488281 3.496094 2.332031 5.597656 2.347656l132.328125 1.34375c13.140625.175781 23.710938 10.859375 23.753907 24v22.65625zm10.167969 88v-8.800781c6.199219 11.625 18.933594 18.222656 32.007812 16.582031 13.074219-1.640625 23.78125-11.175781 26.917969-23.976562.355469.089843.710938.152343 1.074219.195312h4v24c0 4.417969 3.582031 8 8 8h8c4.417969 0 8-3.582031 8-8 0-4.421875-3.582031-8-8-8v-16h5.136719c3.207031 12.738281 13.921875 22.191406 26.960937 23.785156 13.039063 1.59375 25.71875-4.996094 31.902344-16.585937v8.800781c0 39.761719-32.238281 72-72 72-39.765625 0-72-32.238281-72-72zm80.230469 152h-8.464844l-26.679687-32h61.824218zm8.417969 24-3.203126 16h-18.894531l-3.527343-17.671875-.207032.039063 8-6.402344h9.886719zm-28.648438-72v-16.921875c10.660156 1.605469 21.53125 1.109375 32-1.464844v18.386719zm-96 168v-64c0-4.421875-3.582031-8-8-8s-8 3.578125-8 8v64h-60v-96c.039062-30.914062 25.085938-55.960938 56-56h53.960938l43.4375 152zm84.199219-34.402344-12-41.925781 12.710937-10.1875 2.984375 14.914063zm-16.742188-58.605468-16.851562-58.992188h9.601562l32.367188 38.839844zm29.382813 93.007812 6.398437-64h17.5625l6.398438 64zm33.984375-112.472656 32.917969-39.527344h9.648437l-18.238281 63.847656zm8.976562 78.070312-3.722656-37.199218 2.160156-10.832032 11.890625 11.878906zm152.199219 34.402344h-48v-64c0-4.421875-3.582031-8-8-8s-8 3.578125-8 8v64h-81.402344l43.441406-152h45.960938c30.910156.039062 55.960938 25.085938 56 56zm0 0"/><path d="m220.074219 215.199219c3.957031-1.976563 5.558593-6.78125 3.585937-10.738281-1.976562-3.953126-6.78125-5.558594-10.738281-3.582032-7.824219 3.894532-17.023437 3.894532-24.847656 0-3.953125-1.976562-8.761719-.371094-10.734375 3.582032-1.976563 3.957031-.371094 8.761718 3.582031 10.738281 12.332031 6.132812 26.824219 6.132812 39.152344 0zm0 0"/><path d="m268.5 408h32v16h-32zm0 0"/></svg>